<svg id="svg" xmlns="http://www.w3.org/2000/svg" xmlns:xlink="http://www.w3.org/1999/xlink" width="400" height="400" viewBox="0, 0, 400,400"><g id="svgg"><path id="path0" d="M189.301 0.296 C 188.359 0.413,186.587 0.523,185.361 0.540 C 184.136 0.557,182.274 0.688,181.224 0.832 C 180.174 0.975,177.839 1.242,176.034 1.423 C 174.230 1.605,172.111 1.862,171.327 1.994 C 170.542 2.127,168.873 2.384,167.618 2.567 C 162.961 3.244,151.544 5.833,144.936 7.709 C 143.916 7.999,142.311 8.442,141.369 8.695 C 139.473 9.203,139.560 9.174,134.950 10.844 C 118.854 16.674,110.114 20.755,96.576 28.762 C 90.428 32.399,80.223 39.441,76.290 42.762 C 75.803 43.173,74.464 44.280,73.315 45.221 C 72.165 46.163,70.950 47.190,70.613 47.504 C 70.277 47.817,69.112 48.841,68.025 49.778 C 66.938 50.715,65.342 52.143,64.479 52.952 C 63.616 53.761,61.897 55.326,60.659 56.428 C 59.420 57.531,57.317 59.633,55.984 61.100 C 54.652 62.566,52.894 64.472,52.077 65.335 C 49.004 68.584,46.446 71.604,43.957 74.920 C 43.262 75.847,42.608 76.669,42.504 76.748 C 42.399 76.826,41.323 78.238,40.111 79.886 C 38.899 81.534,37.732 83.099,37.516 83.364 C 32.361 89.710,22.968 106.109,17.200 118.830 C 13.993 125.902,9.999 136.555,8.419 142.248 C 8.161 143.177,7.697 144.836,7.387 145.934 C 4.493 156.188,2.037 168.843,1.158 178.031 C 0.267 187.336,0.149 190.032,0.152 200.999 C 0.155 211.981,0.360 216.263,1.135 221.541 C 1.273 222.482,1.532 224.408,1.709 225.820 C 1.887 227.233,2.142 229.030,2.276 229.815 C 2.410 230.599,2.673 232.268,2.859 233.524 C 3.333 236.713,4.451 242.385,5.304 245.934 C 5.701 247.582,6.218 249.765,6.454 250.785 C 10.532 268.415,23.238 296.249,34.703 312.668 C 38.637 318.303,46.177 328.130,47.640 329.529 C 47.722 329.608,48.556 330.571,49.494 331.669 C 50.432 332.767,51.729 334.244,52.378 334.950 C 53.026 335.656,54.302 337.068,55.215 338.088 C 58.475 341.734,64.957 347.808,71.755 353.588 C 74.892 356.255,85.221 364.085,87.874 365.807 C 100.937 374.285,112.244 380.281,123.908 384.916 C 130.565 387.562,131.507 387.922,133.809 388.699 C 134.986 389.097,136.912 389.755,138.088 390.161 C 140.209 390.894,148.741 393.364,151.213 393.961 C 151.919 394.131,153.845 394.596,155.492 394.993 C 158.579 395.737,162.843 396.570,167.332 397.307 C 168.745 397.539,170.606 397.847,171.469 397.991 C 180.056 399.426,190.968 400.105,202.140 399.899 C 214.191 399.677,221.616 399.111,230.385 397.745 C 231.327 397.599,232.675 397.393,233.381 397.289 C 234.087 397.184,235.949 396.851,237.518 396.549 C 239.087 396.247,241.141 395.854,242.083 395.677 C 243.597 395.392,249.471 393.881,253.495 392.742 C 254.280 392.520,255.884 392.067,257.061 391.736 C 260.950 390.641,269.986 387.522,273.466 386.073 C 282.733 382.215,284.649 381.367,289.016 379.184 C 301.895 372.746,314.393 364.788,324.655 356.489 C 330.050 352.126,330.845 351.431,338.423 344.452 C 357.108 327.244,375.339 300.299,385.585 274.750 C 389.563 264.832,392.374 255.866,394.979 244.793 C 395.581 242.234,397.294 233.412,397.694 230.813 C 397.875 229.636,398.140 227.903,398.284 226.961 C 398.428 226.020,398.679 224.030,398.842 222.539 C 399.005 221.049,399.288 218.609,399.472 217.118 C 399.948 213.266,399.964 188.041,399.495 183.738 C 399.298 181.933,398.998 179.173,398.830 177.603 C 398.414 173.736,397.314 166.946,396.125 160.913 C 394.339 151.853,393.098 147.096,390.252 138.408 C 384.769 121.666,378.663 108.469,369.907 94.437 C 365.701 87.694,360.705 80.373,359.783 79.601 C 359.690 79.522,358.726 78.302,357.643 76.890 C 356.559 75.478,355.279 73.868,354.798 73.314 C 354.317 72.759,353.474 71.738,352.924 71.045 C 351.379 69.096,350.362 67.921,348.477 65.907 C 347.521 64.886,345.866 63.088,344.798 61.912 C 342.829 59.741,341.816 58.736,338.231 55.394 C 337.133 54.371,335.528 52.872,334.665 52.064 C 333.802 51.255,332.004 49.646,330.670 48.488 C 329.337 47.329,328.181 46.310,328.103 46.222 C 328.024 46.134,327.382 45.620,326.676 45.078 C 325.970 44.537,325.328 44.027,325.250 43.944 C 320.038 38.439,293.256 22.121,281.455 17.260 C 267.822 11.644,257.937 8.249,248.787 6.039 C 248.081 5.869,246.155 5.404,244.508 5.007 C 240.616 4.069,235.887 3.186,228.388 1.995 C 224.736 1.416,220.509 0.965,212.366 0.288 C 208.466 -0.036,191.932 -0.030,189.301 0.296 M210.556 13.680 C 212.204 13.830,215.285 14.095,217.404 14.268 C 221.276 14.584,227.000 15.365,231.241 16.156 C 233.897 16.652,235.879 17.008,238.128 17.395 C 242.799 18.199,241.866 21.079,235.806 24.563 C 234.080 25.556,232.218 26.709,231.669 27.126 C 231.120 27.543,229.451 28.787,227.960 29.890 C 224.602 32.374,216.743 40.410,214.588 43.563 C 214.272 44.027,212.768 44.442,210.128 44.795 C 206.838 45.236,205.401 45.520,197.004 47.385 C 191.946 48.510,184.855 50.525,182.018 51.644 C 181.159 51.983,179.494 52.589,178.317 52.990 C 177.140 53.391,176.049 53.811,175.892 53.923 C 175.735 54.035,175.007 54.327,174.275 54.570 C 170.295 55.894,157.366 62.022,153.295 64.515 C 152.301 65.123,151.424 65.621,151.345 65.621 C 151.267 65.621,150.146 66.282,148.854 67.090 C 147.562 67.898,146.248 68.702,145.934 68.876 C 145.137 69.320,141.735 71.616,139.465 73.243 C 134.725 76.640,133.517 77.556,131.286 79.443 C 125.551 84.291,124.910 84.736,123.653 84.736 C 123.293 84.736,122.652 84.438,122.229 84.074 C 119.697 81.895,121.248 59.565,124.939 45.078 C 126.276 39.829,126.650 38.574,127.959 34.950 C 128.639 33.067,129.481 30.692,129.831 29.672 C 130.811 26.810,131.222 26.381,133.746 25.584 C 134.957 25.202,137.425 24.346,139.230 23.683 C 143.440 22.136,144.133 21.919,149.786 20.388 C 161.131 17.314,165.332 16.421,173.181 15.414 C 174.515 15.243,176.505 14.987,177.603 14.845 C 179.943 14.544,184.645 14.083,188.873 13.741 C 193.136 13.396,207.006 13.357,210.556 13.680 M276.658 29.908 C 278.099 30.548,281.566 32.233,284.361 33.653 C 288.767 35.890,291.156 37.227,298.337 41.471 C 302.739 44.072,310.151 49.293,310.589 50.100 C 311.117 51.075,310.977 52.241,310.258 52.845 C 310.019 53.046,309.667 53.347,309.477 53.515 C 308.882 54.037,302.495 56.776,301.871 56.776 C 301.545 56.776,299.964 56.220,298.357 55.541 C 292.908 53.239,288.490 51.626,284.165 50.363 C 280.728 49.358,274.429 47.728,271.469 47.076 C 270.685 46.904,269.529 46.646,268.902 46.503 C 265.795 45.796,262.192 45.105,260.913 44.971 C 260.128 44.890,258.010 44.637,256.205 44.410 C 253.089 44.018,250.459 43.754,243.159 43.103 C 238.832 42.717,237.963 42.205,237.950 40.033 C 237.933 37.371,252.578 30.537,261.341 29.117 C 262.518 28.926,263.738 28.701,264.051 28.616 C 264.365 28.532,266.355 28.379,268.474 28.277 C 272.666 28.074,272.408 28.023,276.658 29.908 M111.009 37.456 C 112.310 38.454,112.399 39.748,111.432 43.600 C 110.837 45.975,110.242 49.109,108.988 56.491 C 108.704 58.159,108.344 61.984,107.827 68.820 C 107.326 75.452,107.918 87.567,109.151 95.897 C 109.790 100.210,109.770 100.328,108.060 102.317 C 102.982 108.223,101.672 110.046,93.628 122.397 C 92.114 124.720,86.092 136.341,84.239 140.514 C 82.970 143.372,81.877 145.844,81.590 146.505 C 81.003 147.860,80.151 150.107,79.317 152.496 C 78.824 153.909,78.316 155.321,78.187 155.635 C 77.891 156.353,76.393 161.469,75.597 164.479 C 75.265 165.735,74.797 167.468,74.557 168.331 C 74.318 169.194,74.007 170.478,73.867 171.184 C 73.727 171.890,73.497 172.981,73.355 173.609 C 72.499 177.403,71.320 184.747,70.769 189.729 C 69.959 197.041,69.859 199.032,69.866 207.813 C 69.872 216.839,70.188 223.594,70.746 226.676 C 72.344 235.483,70.210 237.427,64.553 232.317 C 56.854 225.363,50.982 218.076,43.224 205.849 C 39.328 199.708,33.386 185.972,31.376 178.459 C 29.386 171.021,29.279 170.547,28.402 165.193 C 26.741 155.049,26.379 149.485,26.791 140.371 C 27.312 128.837,27.830 126.951,33.491 115.977 C 46.780 90.217,61.832 71.776,84.165 53.892 C 96.880 43.711,109.273 36.123,111.009 37.456 M241.805 56.464 C 243.056 56.606,246.006 56.869,248.359 57.049 C 252.794 57.387,256.268 57.875,264.337 59.293 C 272.283 60.690,288.545 65.646,289.533 66.972 C 290.208 67.877,289.759 70.124,288.096 74.180 C 285.633 80.182,284.583 87.574,285.552 92.093 C 286.430 96.183,285.329 97.144,278.459 98.283 C 273.522 99.101,271.100 99.719,262.862 102.263 C 254.814 104.749,242.358 111.438,234.431 117.532 C 229.346 121.441,228.494 121.663,226.548 119.581 C 222.294 115.032,216.885 102.916,215.703 95.292 C 215.520 94.116,215.257 92.447,215.119 91.583 C 214.601 88.361,214.850 78.931,215.541 75.606 C 215.623 75.214,215.830 74.123,216.001 73.181 C 216.953 67.952,221.088 57.861,222.573 57.142 C 223.847 56.526,237.968 56.028,241.805 56.464 M203.940 60.781 C 204.752 61.537,204.759 63.063,203.968 66.066 C 203.640 67.312,203.323 68.524,203.264 68.759 C 203.036 69.675,202.025 75.284,201.734 77.252 C 199.382 93.123,205.529 114.879,216.101 128.103 C 218.913 131.621,218.889 131.982,215.569 136.098 C 212.254 140.209,211.514 141.267,207.496 147.646 C 202.869 154.993,196.584 171.605,195.256 180.001 C 195.166 180.565,195.039 181.115,194.973 181.223 C 194.907 181.331,194.720 182.483,194.557 183.783 C 193.801 189.811,192.607 189.925,183.880 184.800 C 177.483 181.043,173.413 178.205,165.621 172.065 C 161.818 169.070,152.054 158.912,148.217 153.960 C 145.290 150.182,140.168 142.670,138.660 139.943 C 138.139 139.001,137.408 137.745,137.035 137.151 C 136.199 135.820,133.164 129.710,132.186 127.389 C 131.789 126.448,131.106 124.906,130.667 123.964 C 129.218 120.853,126.668 113.318,125.532 108.788 C 125.091 107.031,124.650 105.462,124.551 105.301 C 124.182 104.704,125.331 103.306,129.867 98.831 C 134.565 94.196,135.905 93.022,141.229 88.873 C 142.840 87.618,144.558 86.257,145.046 85.849 C 148.127 83.274,160.775 75.543,167.061 72.392 C 173.416 69.207,185.833 64.407,192.730 62.468 C 195.081 61.807,197.775 61.039,198.716 60.760 C 201.149 60.040,203.153 60.048,203.940 60.781 M324.394 65.749 C 329.582 66.726,331.486 67.647,334.254 70.520 C 339.590 76.057,344.220 81.451,348.782 87.447 C 350.869 90.188,350.663 90.104,347.061 86.739 C 343.400 83.321,341.812 81.993,335.378 76.973 C 331.163 73.685,325.960 70.048,322.598 68.041 C 320.763 66.945,319.260 65.888,319.260 65.692 C 319.258 65.208,321.661 65.235,324.394 65.749 M308.702 75.539 C 315.186 78.957,326.343 86.513,331.129 90.728 C 331.931 91.434,333.920 93.167,335.548 94.579 C 344.369 102.227,345.672 104.015,343.792 105.895 C 342.745 106.942,341.589 106.855,338.659 105.506 C 333.030 102.915,325.927 100.537,319.686 99.155 C 317.710 98.717,314.990 98.257,308.678 97.292 C 307.646 97.134,305.896 97.004,304.790 97.004 C 301.054 97.004,300.307 96.345,299.296 92.154 C 298.171 87.491,298.911 81.985,301.311 77.175 C 303.298 73.193,303.970 73.044,308.702 75.539 M293.324 110.780 C 293.576 110.971,294.488 112.347,295.352 113.838 C 296.216 115.328,297.338 117.248,297.847 118.105 C 304.027 128.515,303.392 131.435,295.511 128.857 C 289.437 126.870,285.204 125.749,279.743 124.682 C 278.802 124.498,277.518 124.239,276.890 124.106 C 276.262 123.973,274.401 123.715,272.753 123.533 C 271.106 123.351,268.817 123.085,267.668 122.942 C 266.519 122.799,264.762 122.682,263.762 122.682 C 262.763 122.682,261.866 122.553,261.769 122.397 C 261.672 122.240,261.368 122.111,261.093 122.111 C 259.803 122.111,258.921 120.121,259.520 118.561 C 259.724 118.030,261.570 117.149,265.193 115.855 C 268.821 114.559,268.948 114.517,271.327 113.819 C 272.504 113.474,273.984 113.027,274.616 112.826 C 275.249 112.625,276.276 112.374,276.899 112.269 C 277.522 112.163,278.994 111.882,280.171 111.643 C 285.482 110.565,292.443 110.109,293.324 110.780 M316.598 112.401 C 320.396 113.162,323.443 114.094,329.957 116.487 C 339.011 119.812,351.020 127.543,358.862 135.093 C 372.290 148.021,381.518 164.845,384.838 182.454 C 385.016 183.395,385.361 185.128,385.604 186.305 C 386.801 192.086,386.791 212.897,385.590 215.899 C 384.349 219.001,381.739 218.136,380.441 214.191 C 379.527 211.414,377.606 206.225,377.019 204.950 C 376.791 204.455,376.605 203.961,376.605 203.852 C 376.605 203.325,373.721 197.313,370.831 191.813 C 367.015 184.553,364.615 180.928,357.489 171.666 C 353.754 166.810,345.808 158.593,340.609 154.207 C 334.743 149.260,334.568 149.130,327.198 144.193 C 322.075 140.761,322.407 141.086,321.563 138.659 C 319.001 131.287,316.416 124.998,313.708 119.549 C 310.277 112.645,310.841 111.249,316.598 112.401 M114.650 120.651 C 115.066 121.104,115.831 122.676,116.350 124.146 C 118.171 129.301,123.457 140.733,126.051 145.126 C 130.233 152.209,134.938 158.966,139.455 164.377 C 140.194 165.262,141.519 166.867,142.398 167.943 C 146.366 172.798,158.435 184.013,163.551 187.599 C 173.601 194.643,180.015 198.456,188.017 202.144 C 192.773 204.335,192.899 204.467,192.899 207.228 C 192.899 208.433,192.841 209.514,192.769 209.631 C 192.698 209.748,192.559 210.791,192.461 211.950 C 192.363 213.108,192.231 214.141,192.167 214.245 C 192.102 214.349,191.977 215.071,191.888 215.849 C 191.799 216.627,191.607 217.681,191.461 218.190 C 191.315 218.699,191.247 219.116,191.311 219.116 C 191.375 219.116,191.309 219.426,191.165 219.805 C 191.021 220.184,190.436 222.270,189.865 224.441 C 187.377 233.905,181.707 245.468,175.547 253.638 C 174.896 254.501,173.827 255.913,173.171 256.776 C 172.515 257.639,171.140 259.201,170.116 260.246 C 168.068 262.336,168.350 262.232,162.482 263.053 C 161.227 263.228,159.365 263.517,158.345 263.693 C 157.202 263.891,152.390 264.018,145.792 264.024 C 134.852 264.033,132.522 263.869,126.312 262.650 C 125.178 262.428,123.352 262.094,122.254 261.908 C 114.913 260.668,103.738 256.949,94.437 252.650 C 88.637 249.970,88.797 250.172,87.346 243.652 C 85.379 234.813,84.138 227.089,83.587 220.257 C 83.273 216.366,83.150 198.486,83.431 197.709 C 83.515 197.479,83.718 195.749,83.882 193.866 C 84.786 183.486,86.148 176.575,89.729 164.194 C 93.510 151.122,100.674 135.931,108.701 123.967 C 111.598 119.649,113.006 118.864,114.650 120.651 M267.618 136.398 C 269.789 136.669,272.919 137.187,278.031 138.124 C 285.665 139.522,295.576 142.825,304.708 147.014 C 310.998 149.900,311.086 149.965,311.648 152.168 C 313.913 161.042,315.722 171.503,316.401 179.650 C 316.764 184.000,316.780 200.569,316.425 203.592 C 316.280 204.833,316.014 207.325,315.836 209.130 C 314.528 222.349,310.086 239.244,304.772 251.213 C 301.349 258.923,299.827 261.973,296.813 267.168 C 288.149 282.100,286.424 283.140,283.427 275.240 C 273.589 249.294,258.411 229.231,235.249 211.550 C 229.687 207.305,220.287 201.746,212.553 198.128 C 206.739 195.408,206.723 195.389,207.142 191.524 C 208.101 182.678,209.830 175.540,213.212 166.476 C 215.876 159.337,222.209 148.772,227.463 142.704 C 228.599 141.391,229.914 139.828,230.385 139.232 C 231.675 137.597,234.580 137.011,245.934 136.095 C 249.705 135.790,264.390 135.996,267.618 136.398 M332.468 165.086 C 333.644 165.684,339.925 171.850,343.476 175.892 C 348.118 181.175,351.495 185.835,356.961 194.498 C 358.530 196.985,363.248 206.376,364.312 209.130 C 364.827 210.464,365.555 212.341,365.928 213.302 C 367.944 218.483,370.137 226.118,370.900 230.618 C 371.039 231.431,371.336 233.188,371.562 234.522 C 371.981 237.001,372.385 239.935,372.894 244.197 C 373.544 249.631,373.031 268.983,372.156 272.036 C 370.242 278.717,358.909 298.811,350.833 309.843 C 341.164 323.051,327.494 337.338,316.548 345.675 C 303.059 355.948,293.113 362.390,290.458 362.572 C 287.729 362.759,287.307 361.293,288.602 356.122 C 289.351 353.131,289.446 352.657,290.276 347.789 C 290.530 346.298,290.859 344.372,291.006 343.509 C 291.154 342.646,291.408 340.335,291.571 338.374 C 291.734 336.412,291.996 333.247,292.153 331.339 C 292.524 326.849,292.520 318.837,292.145 315.319 C 291.357 307.913,291.201 306.629,290.734 303.709 C 290.135 299.961,290.035 300.249,293.367 296.088 C 297.206 291.295,302.844 283.549,304.280 281.096 C 304.437 280.828,304.906 280.088,305.322 279.451 C 307.272 276.470,314.453 262.939,315.539 260.200 C 315.757 259.650,316.298 258.396,316.741 257.411 C 317.184 256.426,317.546 255.563,317.546 255.493 C 317.546 255.424,317.867 254.665,318.260 253.807 C 318.652 252.949,318.973 252.163,318.973 252.059 C 318.973 251.955,319.155 251.465,319.377 250.970 C 320.507 248.456,323.070 240.582,324.383 235.592 C 325.538 231.199,326.031 229.213,326.383 227.532 C 326.580 226.591,326.844 225.435,326.970 224.964 C 327.095 224.494,327.342 223.210,327.519 222.111 C 327.695 221.013,327.955 219.408,328.096 218.545 C 328.720 214.729,329.118 211.549,329.815 204.802 C 330.188 201.186,330.183 181.733,329.807 177.970 C 329.646 176.356,329.393 174.009,329.245 172.753 C 328.524 166.630,328.531 166.268,329.393 165.407 C 330.289 164.511,331.158 164.420,332.468 165.086 M18.224 183.128 C 18.643 183.578,19.223 184.701,19.511 185.625 C 20.467 188.687,23.102 195.659,24.269 198.214 C 24.573 198.879,24.822 199.482,24.822 199.555 C 24.822 199.869,27.927 206.057,29.167 208.216 C 29.916 209.517,30.528 210.628,30.528 210.684 C 30.528 210.797,34.032 216.403,35.621 218.830 C 42.884 229.932,51.885 239.754,63.485 249.237 C 64.965 250.446,69.242 253.473,74.584 257.092 L 77.698 259.201 78.652 261.912 C 79.177 263.402,79.801 265.182,80.039 265.867 C 80.277 266.551,80.714 267.643,81.009 268.292 C 81.305 268.941,81.939 270.460,82.419 271.668 C 82.899 272.876,83.735 274.801,84.276 275.948 C 88.756 285.424,88.882 285.815,87.879 287.091 C 87.009 288.196,84.747 288.169,80.577 287.003 C 66.597 283.093,56.863 277.986,44.631 268.142 C 29.780 256.190,17.442 234.025,14.562 214.123 C 14.380 212.867,14.081 211.006,13.898 209.986 C 13.478 207.649,13.485 189.777,13.907 186.173 C 14.343 182.454,16.302 181.072,18.224 183.128 M210.414 211.917 C 211.527 212.483,216.039 215.076,219.116 216.917 C 233.443 225.491,247.963 239.630,257.850 254.636 C 262.204 261.244,267.985 271.855,269.041 275.178 C 269.241 275.806,269.494 276.448,269.604 276.605 C 269.714 276.762,270.090 277.725,270.440 278.745 C 270.790 279.765,271.192 280.856,271.334 281.170 C 272.873 284.578,275.476 294.244,275.220 295.603 C 274.925 297.167,266.582 305.041,258.771 311.127 C 257.160 312.382,255.442 313.745,254.954 314.155 C 254.086 314.884,247.334 319.393,243.649 321.704 C 233.653 327.974,219.341 334.163,206.562 337.743 C 204.914 338.204,202.582 338.856,201.380 339.191 C 195.855 340.730,194.627 339.525,196.046 333.951 C 196.366 332.696,196.674 331.434,196.732 331.147 C 196.790 330.860,196.913 330.389,197.004 330.100 C 197.227 329.399,197.312 328.933,197.709 326.248 C 197.895 324.993,198.155 323.324,198.286 322.539 C 198.613 320.590,198.618 309.383,198.294 306.880 C 198.149 305.764,197.974 304.401,197.906 303.852 C 197.838 303.302,197.565 301.954,197.300 300.856 C 197.036 299.757,196.775 298.666,196.721 298.431 C 196.668 298.195,196.490 297.425,196.326 296.719 C 194.723 289.796,189.841 280.241,182.716 270.085 C 181.432 268.255,181.519 267.988,184.830 263.625 C 193.085 252.749,197.799 243.679,202.181 230.243 C 202.872 228.124,203.485 226.134,203.544 225.820 C 203.603 225.506,203.867 224.223,204.132 222.967 C 204.396 221.712,204.664 220.428,204.726 220.114 C 204.789 219.800,204.909 219.223,204.993 218.830 C 205.269 217.538,205.749 214.759,205.862 213.802 C 206.141 211.437,207.977 210.676,210.414 211.917 M102.055 270.221 C 102.494 270.397,103.110 270.646,103.424 270.773 C 108.481 272.821,120.556 275.703,127.247 276.459 C 128.894 276.646,131.183 276.915,132.332 277.058 C 133.481 277.201,135.186 277.318,136.121 277.318 C 140.105 277.318,141.880 279.480,139.729 281.712 C 138.604 282.879,135.136 284.281,128.673 286.180 C 127.496 286.526,126.016 286.973,125.384 287.174 C 124.751 287.375,123.724 287.626,123.101 287.731 C 122.478 287.836,120.685 288.162,119.116 288.454 C 111.087 289.949,107.344 289.999,106.248 288.626 C 104.533 286.477,97.575 273.270,97.575 272.164 C 97.575 270.501,100.065 269.421,102.055 270.221 M173.219 280.147 C 178.132 285.859,183.178 296.991,184.307 304.609 C 184.466 305.683,184.722 307.076,184.877 307.703 C 185.160 308.854,185.095 322.100,184.804 322.574 C 184.719 322.712,184.572 323.315,184.477 323.914 C 183.283 331.460,179.232 342.149,177.239 343.009 C 176.117 343.493,153.684 343.492,150.214 343.007 C 148.802 342.810,146.555 342.506,145.221 342.332 C 135.939 341.120,126.868 339.011,117.546 335.899 C 109.069 333.067,108.785 332.756,110.882 328.595 C 114.032 322.345,115.335 314.033,114.299 306.803 C 113.789 303.251,114.174 302.961,120.860 301.849 C 136.873 299.187,154.313 291.623,165.894 282.317 C 170.820 278.358,171.506 278.154,173.219 280.147 M60.983 294.321 C 66.213 296.746,72.865 299.048,78.459 300.366 C 82.320 301.276,84.218 301.622,91.322 302.708 C 92.354 302.866,94.152 303.002,95.316 303.009 C 99.822 303.039,100.847 304.680,101.186 312.411 C 101.465 318.750,98.187 326.106,95.084 326.106 C 92.673 326.106,75.342 314.976,68.873 309.272 C 68.072 308.566,66.081 306.835,64.450 305.425 C 57.395 299.328,54.789 296.402,55.252 295.094 C 55.982 293.031,57.701 292.799,60.983 294.321 M53.072 313.407 C 56.377 316.514,59.792 319.499,61.341 320.633 C 62.047 321.150,63.459 322.208,64.479 322.984 C 65.499 323.761,67.746 325.394,69.472 326.614 C 72.243 328.573,73.937 329.696,79.249 333.096 C 81.545 334.565,80.506 335.020,76.320 334.378 C 71.112 333.580,68.531 332.367,65.599 329.337 C 60.358 323.923,55.531 318.353,51.796 313.409 C 48.895 309.571,48.993 309.570,53.072 313.407 M277.402 315.554 C 278.731 316.600,278.835 317.510,278.665 326.655 C 278.579 331.296,278.365 336.184,278.189 337.518 C 278.013 338.852,277.732 341.034,277.565 342.368 C 276.476 351.049,271.478 369.048,269.113 372.801 C 268.489 373.792,262.375 376.145,254.779 378.317 C 241.350 382.158,235.478 383.476,226.890 384.577 C 219.035 385.584,216.262 385.870,209.843 386.334 C 204.866 386.694,191.207 386.528,185.877 386.043 C 178.698 385.389,176.367 385.153,174.608 384.899 C 173.588 384.752,171.854 384.502,170.756 384.345 C 159.875 382.786,157.223 381.225,160.154 378.103 C 160.633 377.593,161.137 377.175,161.274 377.175 C 161.411 377.175,162.083 376.790,162.767 376.320 C 163.452 375.849,164.083 375.464,164.170 375.464 C 164.482 375.464,167.368 373.602,169.241 372.192 C 170.291 371.402,171.896 370.218,172.808 369.561 C 175.274 367.782,183.971 358.710,185.412 356.414 C 185.641 356.048,187.288 355.617,190.014 355.210 C 192.520 354.837,194.835 354.430,196.434 354.083 C 197.061 353.947,198.281 353.687,199.144 353.506 C 200.823 353.153,204.203 352.366,206.990 351.680 C 209.833 350.980,216.251 349.021,218.830 348.065 C 220.164 347.571,221.576 347.063,221.969 346.936 C 222.917 346.629,227.878 344.716,228.959 344.240 C 229.429 344.033,230.649 343.502,231.669 343.059 C 234.684 341.753,244.750 336.682,246.705 335.485 C 247.699 334.877,248.576 334.379,248.655 334.379 C 248.733 334.379,249.854 333.718,251.146 332.910 C 252.438 332.102,253.752 331.298,254.066 331.124 C 256.028 330.032,264.855 323.759,267.903 321.290 C 270.218 319.415,272.069 317.858,273.794 316.334 C 275.487 314.837,276.274 314.667,277.402 315.554 M101.643 344.467 C 103.250 345.151,105.720 346.123,107.133 346.628 C 108.545 347.132,110.342 347.784,111.127 348.076 C 111.912 348.368,113.902 349.009,115.549 349.500 C 117.197 349.992,118.866 350.504,119.258 350.640 C 119.921 350.868,125.929 352.345,128.531 352.918 C 129.158 353.057,130.250 353.302,130.956 353.463 C 133.706 354.092,137.758 354.884,139.800 355.192 C 140.977 355.369,142.710 355.633,143.652 355.778 C 146.146 356.161,151.140 356.600,155.064 356.781 C 160.893 357.050,161.769 357.387,161.769 359.366 C 161.769 360.783,160.813 361.920,158.488 363.266 C 157.389 363.902,156.039 364.707,155.486 365.054 C 150.164 368.397,138.952 371.450,131.150 371.682 L 127.208 371.798 123.304 370.030 C 113.000 365.362,105.711 361.282,95.140 354.262 C 88.957 350.157,88.362 349.509,89.115 347.706 C 89.389 347.051,89.867 346.590,90.621 346.255 C 91.229 345.985,91.949 345.642,92.222 345.493 C 92.494 345.343,92.851 345.221,93.015 345.221 C 93.179 345.221,94.240 344.772,95.372 344.223 C 97.970 342.962,98.119 342.968,101.643 344.467 " stroke="none" fill="#000000" fill-rule="evenodd"></path></g></svg>