<?xml version="1.0" standalone="no"?>
<!DOCTYPE svg PUBLIC "-//W3C//DTD SVG 20010904//EN"
 "http://www.w3.org/TR/2001/REC-SVG-20010904/DTD/svg10.dtd">
<svg version="1.0" xmlns="http://www.w3.org/2000/svg"
 width="1402.000000pt" height="1402.000000pt" viewBox="0 0 1402.000000 1402.000000"
 preserveAspectRatio="xMidYMid meet">
<metadata>
Created by potrace 1.14, written by Peter Selinger 2001-2017
</metadata>
<g transform="translate(0.000000,1402.000000) scale(0.100000,-0.100000)"
fill="#000000" stroke="none">
<path d="M6635 14010 c-33 -4 -95 -8 -138 -9 -43 -1 -108 -5 -145 -10 -37 -5
-119 -15 -182 -21 -63 -6 -137 -15 -165 -20 -27 -5 -86 -14 -130 -20 -163 -24
-563 -114 -795 -180 -36 -10 -92 -26 -125 -35 -66 -18 -63 -17 -225 -75 -564
-204 -871 -347 -1345 -628 -215 -128 -573 -374 -711 -491 -17 -14 -64 -53
-104 -86 -41 -33 -83 -69 -95 -80 -12 -11 -53 -47 -91 -80 -38 -33 -94 -83
-124 -111 -30 -28 -91 -83 -134 -122 -43 -38 -117 -112 -164 -164 -46 -51
-108 -118 -137 -148 -107 -114 -197 -220 -284 -336 -25 -32 -48 -61 -51 -64
-4 -3 -42 -52 -84 -110 -43 -58 -84 -113 -91 -122 -72 -88 -301 -446 -419
-655 -99 -175 -303 -598 -376 -778 -89 -220 -188 -497 -225 -631 -9 -32 -25
-90 -36 -129 -102 -359 -188 -803 -218 -1125 -32 -326 -36 -421 -36 -805 0
-385 8 -535 35 -720 5 -33 14 -100 20 -150 6 -49 15 -112 20 -140 4 -27 14
-86 20 -130 17 -112 56 -311 86 -435 14 -58 32 -134 40 -170 34 -147 192 -619
277 -830 180 -444 474 -996 713 -1339 138 -198 402 -542 454 -591 3 -3 32 -36
65 -75 33 -38 78 -90 101 -115 23 -25 67 -74 99 -110 115 -128 342 -341 580
-543 110 -94 472 -368 565 -429 458 -297 854 -507 1263 -669 233 -93 266 -106
347 -133 41 -14 109 -37 150 -51 74 -26 373 -112 460 -133 25 -6 92 -23 150
-36 108 -27 258 -56 415 -82 50 -8 115 -19 145 -24 112 -18 372 -46 585 -61
173 -12 725 -7 945 10 169 13 395 38 535 60 33 5 80 12 105 16 25 4 90 15 145
26 55 11 127 24 160 31 53 10 259 62 400 102 28 8 84 24 125 36 136 38 453
147 575 198 325 135 392 165 545 242 451 225 889 504 1249 795 189 153 217
177 483 422 412 379 836 914 1176 1483 104 174 347 649 417 816 179 425 285
751 389 1194 21 90 81 399 95 490 7 41 16 102 21 135 5 33 14 103 19 155 6 52
16 138 23 190 16 135 17 1019 0 1170 -7 63 -17 160 -23 215 -15 136 -53 374
-95 585 -62 318 -106 484 -206 789 -192 587 -406 1049 -713 1541 -147 236
-322 493 -355 520 -3 3 -37 46 -75 95 -38 50 -82 106 -99 125 -17 20 -47 56
-66 80 -54 68 -90 109 -156 180 -33 36 -91 99 -129 140 -69 76 -104 111 -230
228 -38 36 -95 89 -125 117 -30 29 -93 85 -140 126 -47 40 -87 76 -90 79 -3 3
-25 21 -50 40 -25 19 -47 37 -50 40 -17 18 -158 126 -225 173 -500 351 -958
617 -1310 762 -289 119 -431 174 -585 226 -158 54 -443 139 -560 167 -25 6
-92 23 -150 36 -136 33 -302 64 -565 106 -128 20 -276 36 -562 60 -136 11
-716 11 -808 0z m745 -470 c58 -5 166 -14 240 -20 136 -11 336 -39 485 -66 93
-18 163 -30 241 -44 73 -12 94 -31 94 -85 0 -54 -30 -83 -175 -166 -60 -35
-126 -75 -145 -90 -19 -14 -78 -58 -130 -97 -118 -87 -393 -368 -469 -479 -11
-16 -63 -31 -156 -43 -115 -16 -166 -25 -460 -91 -177 -39 -426 -110 -525
-149 -30 -12 -89 -33 -130 -47 -41 -14 -79 -29 -85 -33 -5 -4 -31 -14 -57 -23
-139 -46 -592 -261 -735 -348 -35 -22 -66 -39 -68 -39 -3 0 -42 -23 -88 -51
-45 -29 -91 -57 -102 -63 -28 -16 -147 -96 -227 -153 -166 -119 -208 -151
-286 -217 -201 -170 -224 -186 -268 -186 -13 0 -35 10 -50 23 -26 23 -27 27
-37 188 -19 322 34 795 132 1179 47 184 60 228 106 355 24 66 53 149 66 185
34 100 48 115 137 143 42 14 129 44 192 67 148 54 172 62 370 115 398 108 545
139 820 175 47 6 117 15 155 20 82 10 247 26 395 38 149 12 636 14 760 2z
m2317 -568 c50 -23 172 -82 270 -132 154 -78 238 -125 490 -274 26 -15 130
-83 230 -150 192 -127 222 -158 209 -209 -3 -15 -13 -32 -21 -39 -9 -7 -21
-18 -28 -24 -21 -18 -245 -114 -266 -114 -12 0 -67 19 -124 43 -191 81 -345
137 -497 182 -120 35 -341 92 -445 115 -27 6 -68 15 -90 20 -109 25 -235 49
-280 54 -27 3 -102 11 -165 19 -109 14 -201 23 -457 46 -152 14 -182 32 -183
108 0 27 53 70 178 146 170 103 446 205 642 236 41 7 84 15 95 18 11 3 81 8
155 12 147 7 138 9 287 -57z m-5806 -265 c45 -35 49 -80 15 -215 -21 -83 -42
-193 -86 -452 -10 -58 -23 -193 -41 -432 -17 -233 4 -657 47 -949 22 -151 21
-156 -38 -225 -178 -207 -224 -271 -506 -704 -53 -81 -264 -489 -329 -635 -45
-100 -83 -187 -93 -210 -21 -47 -51 -126 -80 -210 -17 -49 -35 -99 -40 -110
-10 -25 -62 -204 -90 -310 -12 -44 -28 -105 -37 -135 -8 -30 -19 -75 -24 -100
-5 -25 -13 -63 -18 -85 -30 -133 -71 -390 -91 -565 -28 -256 -31 -326 -31
-634 0 -316 11 -553 31 -661 36 -199 16 -294 -63 -295 -40 0 -61 13 -154 97
-270 244 -476 499 -748 928 -55 87 -247 478 -293 598 -54 138 -97 266 -122
362 -70 261 -74 277 -105 465 -58 356 -70 551 -56 870 14 309 32 418 93 560
100 233 363 717 511 940 259 389 467 647 777 964 413 421 907 811 1360 1072
143 83 180 95 211 71z m4584 -666 c44 -5 148 -14 230 -21 155 -11 277 -29 560
-78 279 -49 848 -223 883 -269 24 -32 8 -111 -50 -253 -31 -74 -63 -169 -73
-210 -22 -95 -32 -346 -16 -418 8 -37 8 -66 0 -101 -9 -43 -15 -51 -52 -69
-24 -12 -107 -32 -197 -47 -173 -29 -258 -50 -547 -139 -282 -87 -718 -322
-996 -536 -110 -84 -170 -119 -206 -120 -38 0 -105 79 -195 229 -128 215 -224
468 -256 671 -6 41 -15 100 -20 130 -18 113 -10 443 15 560 3 14 10 52 16 85
33 183 178 537 230 562 45 22 540 39 674 24z m-1327 -151 c29 -27 29 -80 1
-186 -11 -43 -23 -86 -25 -94 -8 -32 -43 -229 -53 -298 -28 -184 -5 -566 48
-817 65 -311 257 -717 455 -965 99 -123 98 -136 -18 -280 -117 -144 -142 -181
-283 -405 -61 -96 -232 -461 -283 -604 -46 -130 -132 -440 -146 -530 -3 -20
-8 -39 -10 -43 -3 -4 -9 -44 -15 -90 -18 -144 -51 -182 -137 -159 -26 7 -132
62 -237 124 -224 131 -367 231 -640 446 -133 105 -475 461 -610 635 -103 132
-282 395 -335 491 -18 33 -44 77 -57 98 -29 47 -136 261 -170 342 -14 33 -38
87 -53 120 -51 109 -140 373 -180 532 -16 62 -31 117 -35 122 -12 21 28 70
187 227 165 162 211 204 398 349 57 44 117 92 134 106 108 90 551 361 771 472
223 111 658 280 900 347 83 24 177 51 210 60 85 26 156 25 183 0z m4222 -175
c182 -34 249 -66 346 -167 187 -194 349 -383 509 -593 73 -96 66 -93 -61 25
-128 120 -183 166 -409 342 -148 115 -330 243 -448 313 -64 39 -117 76 -117
83 0 16 84 16 180 -3z m-550 -343 c227 -119 618 -384 786 -532 28 -25 98 -85
155 -135 57 -49 146 -130 197 -180 132 -126 147 -162 92 -217 -27 -27 -34 -29
-73 -23 -23 4 -71 21 -107 37 -197 91 -446 174 -665 223 -69 15 -165 31 -386
65 -36 5 -97 10 -136 10 -79 0 -133 18 -155 52 -8 13 -25 66 -38 118 -27 113
-24 235 10 365 29 109 92 234 133 262 41 27 58 24 187 -45z m-539 -1235 c9 -7
41 -55 71 -107 30 -52 70 -120 88 -150 17 -30 58 -107 91 -172 67 -134 74
-174 34 -213 -34 -35 -82 -32 -207 9 -213 69 -362 108 -553 146 -33 6 -78 15
-100 20 -22 5 -87 14 -145 20 -58 7 -138 16 -178 21 -40 5 -102 9 -137 9 -35
0 -67 5 -70 10 -3 6 -14 10 -24 10 -30 0 -61 38 -61 75 0 18 3 41 6 49 7 19
72 50 199 95 127 46 132 47 215 72 41 12 93 27 115 34 22 8 58 16 80 20 22 4
74 14 115 22 186 38 430 54 461 30z m816 -57 c133 -26 240 -59 468 -143 85
-31 376 -179 504 -257 251 -152 490 -355 705 -600 159 -181 341 -451 447 -662
111 -222 221 -548 268 -793 6 -33 18 -94 26 -135 27 -128 41 -521 27 -775 -12
-242 -23 -293 -68 -314 -65 -29 -103 1 -140 112 -32 97 -99 279 -119 324 -8
17 -15 34 -15 38 0 18 -101 229 -202 422 -134 254 -218 381 -468 706 -131 170
-409 458 -592 612 -205 173 -211 178 -470 351 -86 58 -160 110 -166 117 -5 7
-19 41 -31 77 -90 258 -181 479 -276 670 -35 71 -67 149 -70 174 -6 40 -4 48
18 70 31 31 30 31 154 6z m-7079 -289 c15 -16 42 -71 60 -122 64 -181 249
-582 340 -736 147 -248 312 -485 470 -674 26 -31 72 -88 103 -125 139 -171
562 -564 741 -689 353 -247 578 -381 858 -510 167 -77 171 -82 171 -178 0 -43
-2 -80 -4 -85 -3 -4 -8 -40 -11 -81 -4 -40 -8 -77 -11 -80 -2 -4 -6 -29 -9
-57 -3 -27 -10 -64 -15 -82 -5 -17 -8 -32 -6 -32 3 0 0 -11 -5 -24 -5 -13 -25
-87 -45 -163 -20 -76 -52 -181 -72 -233 -58 -156 -224 -487 -309 -615 -75
-112 -98 -145 -204 -285 -23 -30 -72 -85 -107 -122 -72 -73 -62 -69 -268 -98
-44 -6 -109 -16 -145 -22 -40 -7 -209 -12 -440 -12 -383 0 -465 5 -683 48 -39
8 -103 20 -142 26 -171 29 -511 130 -730 218 -169 67 -389 172 -417 199 -29
27 -41 63 -77 223 -68 310 -112 581 -131 820 -11 136 -16 763 -6 790 3 8 10
69 16 135 32 364 79 606 205 1040 133 458 384 991 665 1410 38 56 81 112 96
124 38 30 80 27 112 -8z m5362 -552 c76 -9 186 -27 365 -60 161 -30 503 -131
690 -204 110 -43 417 -186 446 -208 19 -13 31 -37 42 -80 80 -312 143 -678
167 -964 13 -152 13 -733 1 -839 -5 -43 -15 -131 -21 -194 -21 -216 -85 -556
-145 -779 -54 -198 -171 -535 -243 -696 -120 -270 -173 -377 -279 -559 -209
-361 -274 -446 -342 -446 -20 0 -41 4 -46 8 -20 14 -47 64 -81 155 -116 307
-328 728 -482 962 -324 489 -697 881 -1207 1270 -194 149 -524 344 -795 471
-204 95 -204 96 -190 231 34 310 95 560 213 878 93 250 315 621 500 833 39 46
86 101 102 122 18 23 45 42 67 49 56 17 260 43 478 61 132 11 647 3 760 -11z
m2273 -1005 c41 -21 261 -237 386 -379 163 -185 281 -349 472 -652 55 -87 221
-416 258 -513 18 -47 44 -113 57 -146 70 -182 147 -449 174 -607 5 -29 15 -90
23 -137 15 -87 29 -190 47 -339 23 -191 5 -869 -26 -976 -35 -122 -262 -569
-432 -850 -167 -277 -379 -574 -572 -805 -274 -328 -675 -720 -945 -926 -339
-258 -533 -392 -759 -525 -131 -77 -185 -87 -225 -45 -31 33 -30 67 5 204 26
105 29 121 58 292 9 52 21 120 26 150 5 30 14 111 20 180 5 69 14 180 20 247
13 157 13 438 0 561 -28 260 -33 305 -50 407 -21 131 -24 121 93 267 134 168
332 440 382 526 6 9 22 35 37 57 68 105 320 579 358 675 7 19 26 63 42 98 15
34 28 65 28 67 0 2 11 29 25 59 14 30 25 58 25 61 0 4 6 21 14 38 40 89 130
365 176 540 40 153 57 223 70 282 7 33 16 74 20 90 5 17 13 62 20 100 6 39 15
95 20 125 22 134 36 245 60 482 13 126 13 808 0 940 -6 57 -15 139 -20 183 -5
44 -12 114 -16 155 -6 72 -5 76 21 103 32 31 62 34 108 11z m-11014 -633 c14
-15 35 -55 45 -87 33 -107 126 -352 167 -441 10 -24 19 -45 19 -47 0 -11 109
-228 152 -304 27 -46 48 -85 48 -86 0 -4 123 -201 179 -286 254 -389 570 -733
976 -1066 52 -42 202 -148 389 -275 l109 -74 34 -95 c18 -52 40 -115 48 -139
9 -24 24 -62 34 -85 11 -22 33 -76 50 -118 17 -42 46 -110 65 -150 157 -332
161 -346 126 -391 -19 -24 -28 -27 -84 -27 -140 0 -577 150 -819 281 -249 135
-375 219 -613 411 -170 136 -460 474 -606 703 -231 365 -389 785 -448 1190 -6
44 -16 109 -23 145 -15 82 -14 708 0 835 10 77 14 92 38 112 37 32 80 30 114
-6z m6736 -1009 c39 -20 197 -110 305 -175 245 -147 574 -408 802 -638 269
-271 471 -534 691 -899 76 -126 237 -442 257 -505 7 -22 16 -44 20 -50 3 -5
17 -39 29 -75 12 -36 26 -74 31 -85 18 -39 98 -292 120 -380 36 -139 37 -136
-150 -314 -170 -162 -246 -228 -410 -356 -57 -44 -117 -92 -134 -106 -30 -26
-267 -184 -396 -265 -350 -219 -852 -436 -1300 -562 -58 -16 -139 -39 -182
-51 -106 -29 -152 -28 -183 5 -35 37 -35 55 -4 179 12 44 22 88 24 98 2 10 7
27 10 37 8 25 11 41 25 135 6 44 15 103 20 130 11 68 12 461 0 549 -5 39 -11
87 -13 106 -3 19 -12 67 -22 105 -9 39 -18 77 -20 85 -2 8 -8 35 -14 60 -21
92 -123 346 -194 483 -63 123 -148 258 -283 451 -26 37 -32 54 -27 74 3 15 49
83 101 152 290 381 455 699 608 1170 25 74 46 144 48 155 2 11 12 56 21 100 9
44 18 89 21 100 2 11 6 31 9 45 10 45 27 143 30 176 4 31 22 61 48 79 24 17
62 13 112 -13z m-3798 -2043 c15 -6 37 -15 48 -20 177 -71 600 -172 835 -199
58 -6 138 -16 178 -21 40 -5 100 -9 133 -9 140 0 202 -76 127 -154 -40 -41
-161 -90 -388 -157 -41 -12 -93 -27 -115 -34 -22 -8 -58 -16 -80 -20 -22 -4
-85 -15 -140 -25 -142 -27 -258 -40 -347 -40 -76 0 -78 1 -104 34 -60 75 -304
538 -304 577 0 11 13 34 29 50 32 32 77 38 128 18z m2494 -348 c173 -200 349
-591 389 -858 6 -37 15 -86 20 -108 10 -40 8 -505 -3 -521 -3 -5 -8 -26 -11
-47 -30 -186 -95 -393 -173 -550 -40 -81 -60 -111 -81 -119 -39 -17 -825 -17
-947 0 -49 7 -128 17 -175 23 -222 29 -355 55 -615 120 -181 46 -534 161 -582
190 -55 34 -57 72 -7 172 43 83 76 177 106 297 17 68 21 117 22 245 1 88 -3
188 -8 222 -11 75 -4 106 29 127 15 10 99 29 201 46 368 61 638 150 994 326
232 114 437 240 585 359 138 111 145 115 186 115 30 0 43 -7 70 -39z m-3934
-497 c184 -85 417 -166 613 -212 135 -32 202 -44 451 -82 36 -5 99 -10 140
-10 158 -2 194 -59 206 -330 4 -111 4 -118 -31 -223 -19 -59 -52 -137 -72
-173 -58 -104 -93 -108 -243 -28 -236 126 -620 386 -787 534 -28 25 -98 85
-155 135 -161 139 -300 277 -315 312 -15 36 -11 57 19 91 30 33 82 29 174 -14z
m-277 -669 c116 -109 236 -213 290 -253 25 -18 74 -55 110 -83 36 -27 115 -84
175 -127 97 -68 156 -108 343 -227 25 -16 47 -34 47 -40 0 -27 -172 -11 -295
28 -136 42 -168 68 -411 338 -154 171 -195 221 -304 364 -101 135 -98 135 45
0z m7863 -75 c47 -37 50 -69 44 -389 -3 -163 -10 -334 -16 -381 -7 -47 -16
-123 -22 -170 -33 -262 -145 -691 -252 -965 -41 -107 -51 -120 -102 -144 -49
-23 -327 -117 -445 -151 -471 -135 -676 -181 -977 -219 -276 -36 -373 -46
-598 -62 -174 -13 -653 -7 -840 10 -252 23 -333 31 -395 40 -36 5 -96 14 -135
20 -119 17 -350 68 -373 82 -25 16 -44 62 -35 87 7 21 64 82 76 82 4 0 28 14
52 30 24 17 46 30 49 30 11 0 112 65 178 115 37 27 93 69 125 92 86 62 391
380 442 461 8 13 65 28 161 42 88 13 169 27 225 39 22 5 65 14 95 21 59 12
177 40 275 64 100 24 325 93 415 126 47 18 96 35 110 40 33 11 207 78 245 94
17 8 59 26 95 42 106 46 458 223 527 265 35 22 66 39 68 39 3 0 42 23 88 51
45 29 91 57 102 63 69 38 378 258 485 345 81 65 146 120 206 174 60 52 87 58
127 27z m-6160 -1014 c56 -24 143 -58 192 -75 50 -18 113 -41 140 -51 28 -10
97 -33 155 -50 58 -17 116 -35 130 -40 23 -8 234 -60 325 -80 22 -5 60 -13 85
-19 96 -22 238 -50 310 -60 41 -7 102 -16 135 -21 87 -13 262 -29 400 -35 158
-7 189 -13 214 -36 28 -27 28 -81 -1 -120 -13 -17 -54 -49 -93 -71 -38 -23
-86 -51 -105 -63 -57 -36 -272 -123 -382 -156 -158 -46 -317 -72 -471 -76
l-138 -5 -137 62 c-361 164 -617 307 -987 553 -217 144 -238 167 -212 230 10
23 27 39 53 51 22 9 47 21 56 26 10 6 22 10 28 10 6 0 43 16 83 35 39 19 82
35 95 35 12 0 68 -20 125 -44z"/>
</g>
</svg>
